<?xml version="1.0" encoding="iso-8859-1"?>
<!-- Generator: Adobe Illustrator 16.0.0, SVG Export Plug-In . SVG Version: 6.00 Build 0)  -->
<!DOCTYPE svg PUBLIC "-//W3C//DTD SVG 1.1//EN" "http://www.w3.org/Graphics/SVG/1.1/DTD/svg11.dtd">
<svg version="1.1" id="Capa_1" xmlns="http://www.w3.org/2000/svg" xmlns:xlink="http://www.w3.org/1999/xlink" x="0px" y="0px"
	 width="556.665px" height="556.665px" viewBox="0 0 556.665 556.665" style="enable-background:new 0 0 556.665 556.665;"
	 xml:space="preserve">
<g>
	<g>
		<path d="M545.783,241.475l-45.267-60.229l-13.474-74.122c-4.184-23.004-22.54-40.669-45.702-43.958L366.75,52.582L304.814,9.696
			C289.254-1.079,269.614-2.982,252.27,4.601c-3.834,1.675-7.478,3.801-10.843,6.331l-60.225,45.262l-74.127,13.474
			c-4.138,0.751-8.177,1.988-12.016,3.663c-17.08,7.465-29.316,23.574-31.936,42.031l-10.579,74.591l-42.89,61.945
			c-13.311,19.222-12.816,44.698,1.23,63.391l45.267,60.222l13.468,74.125c4.184,23.007,22.54,40.669,45.699,43.957l74.596,10.584
			l61.93,42.886c15.33,10.609,35.463,12.572,52.545,5.1c3.843-1.678,7.498-3.811,10.849-6.332l60.231-45.268l74.13-13.474
			c4.133-0.751,8.172-1.988,12.014-3.661c17.077-7.467,29.313-23.57,31.934-42.035l10.578-74.592l42.891-61.94
			C560.324,285.634,559.821,260.154,545.783,241.475z M278.331,476.4c-109.22,0-198.071-88.852-198.071-198.068
			c0-109.22,88.852-198.071,198.071-198.071s198.071,88.851,198.071,198.071C476.402,387.549,387.551,476.4,278.331,476.4z"/>
		<polygon points="278.326,307.329 306.782,307.329 304.09,337.296 278.326,344.26 278.305,344.271 252.572,337.306 
			250.848,318.054 227.65,318.054 230.954,355.17 278.295,368.308 278.326,368.297 325.698,355.17 332.03,284.214 278.326,284.214 
			247.816,284.214 245.717,260.553 278.326,260.553 334.133,260.553 336.204,237.456 278.326,237.456 220.455,237.456 
			226.692,307.329 		"/>
		<path d="M278.331,98.936c-98.915,0-179.396,80.473-179.396,179.396c0,98.913,80.476,179.396,179.396,179.396
			c98.92,0,179.394-80.483,179.394-179.396C457.725,179.409,377.246,98.936,278.331,98.936z M325.31,148.379h11.754v23.532h16.519
			v11.607H325.31V148.379z M279.921,148.379h12.243l7.529,12.366l7.529-12.366h12.251v35.139h-11.687v-17.406l-8.089,12.487h-0.196
			l-8.089-12.487v17.406h-11.482v-35.139H279.921z M242.348,148.379h32.425v11.661h-10.346v23.478h-11.744v-23.478h-10.335V148.379z
			 M203.015,148.379h11.747v11.607h10.737v-11.607h11.744v35.139h-11.744v-11.765h-10.737v11.765h-11.747V148.379z M353.764,387.353
			l-75.474,20.919l-75.406-20.93l-16.798-188.398h184.497L353.764,387.353z"/>
	</g>
</g>
<g>
</g>
<g>
</g>
<g>
</g>
<g>
</g>
<g>
</g>
<g>
</g>
<g>
</g>
<g>
</g>
<g>
</g>
<g>
</g>
<g>
</g>
<g>
</g>
<g>
</g>
<g>
</g>
<g>
</g>
</svg>
